<svg xmlns="http://www.w3.org/2000/svg" width="11.999" height="12" viewBox="0 0 11.999 12">
    <defs>
        <style>
            .cls-1{fill:none}.cls-2{clip-path:url(#clip-path)}.cls-3{fill:#7e7e7e}
        </style>
        <clipPath id="clip-path">
            <path d="M0 0h11.999v12H0z" class="cls-1"/>
        </clipPath>
    </defs>
    <g id="sort-icon" class="cls-2">
        <g id="Group_17" data-name="Group 17">
            <path id="Path_73" d="M892.945-214.2a1.081 1.081 0 0 1 .531.278q1.983 1.622 3.97 3.238a.494.494 0 0 1 .146.688.783.783 0 0 1-1.061.155 1.265 1.265 0 0 1-.081-.064l-2.835-2.311a.632.632 0 0 1-.054-.058l-.026.011V-202.816a.541.541 0 0 1-.283.5.772.772 0 0 1-.688.061.557.557 0 0 1-.4-.471.89.89 0 0 1 0-.1v-10.748a.549.549 0 0 1 .17-.432.725.725 0 0 1 .375-.179c.017 0 .033-.009.049-.013z" class="cls-3" data-name="Path 73" transform="translate(-885.677 214.202)"/>
            <path id="Path_74" d="M887.885-214.2a2.208 2.208 0 0 1 .316.117.5.5 0 0 1 .272.417v10.857a.544.544 0 0 1-.336.525.812.812 0 0 1-.821-.07l-.049-.038-4.082-3.328a.492.492 0 0 1-.1-.749.8.8 0 0 1 1.013-.093c.028.02.054.042.081.064l2.844 2.32a.207.207 0 0 1 .04.059l.032-.02v-.077-9.375a.552.552 0 0 1 .355-.535 1.7 1.7 0 0 1 .235-.073z" class="cls-3" data-name="Path 74" transform="translate(-882.958 214.202)"/>
        </g>
    </g>
</svg>
